<?xml version="1.0" encoding="UTF-8" standalone="no"?> <svg width="512" height="512" viewBox="0 0 512 512" fill="none" xmlns="http://www.w3.org/2000/svg">
<path d="M32 128C32 74.9807 74.9807 32 128 32H384C437.019 32 480 74.9807 480 128V384C480 437.019 437.019 480 384 480H128C74.9807 480 32 437.019 32 384V128Z" fill="#597DDC"/>
<path d="M32 112C32 67.8172 67.8172 32 112 32H368C412.183 32 448 67.8172 448 112V368C448 412.183 412.183 448 368 448H112C67.8172 448 32 412.183 32 368V112Z" fill="#6EBAFF"/>
<path fill-rule="evenodd" clip-rule="evenodd" d="M372 128C372 116.954 363.046 108 352 108H176C156.118 108 140 124.118 140 144V240C140 259.882 156.118 276 176 276H332V364H160C148.954 364 140 372.954 140 384C140 395.046 148.954 404 160 404H336C355.882 404 372 387.882 372 368V272C372 252.118 355.882 236 336 236H180V148H352C363.046 148 372 139.046 372 128Z" fill="white"/>
</svg>
